<?xml version="1.0" standalone="no"?>
<!DOCTYPE svg PUBLIC "-//W3C//DTD SVG 20010904//EN"
 "http://www.w3.org/TR/2001/REC-SVG-20010904/DTD/svg10.dtd">
<svg version="1.0" xmlns="http://www.w3.org/2000/svg"
 width="452.000000pt" height="112.000000pt" viewBox="0 0 452.000000 112.000000"
 preserveAspectRatio="xMidYMid meet">

<g transform="translate(0.000000,112.000000) scale(0.100000,-0.100000)"
fill="#000000" stroke="none">
<path d="M3101 1083 c-29 -10 -71 -42 -123 -91 l-78 -75 -218 14 c-119 8 -232
13 -250 13 -71 -3 -97 -76 -44 -126 15 -14 82 -53 149 -87 l122 -61 -70 -87
c-72 -90 -87 -100 -151 -102 -61 -2 -68 -8 -68 -60 0 -61 7 -69 64 -80 26 -5
49 -11 51 -13 3 -3 9 -26 14 -53 10 -56 21 -65 79 -65 37 0 44 4 52 26 6 14
10 42 11 62 1 55 8 67 74 116 33 25 72 55 87 66 l27 21 65 -129 c78 -155 112
-188 171 -166 38 15 41 50 24 295 l-16 234 73 79 c168 180 141 335 -45 269z
m99 -63 c0 -44 -34 -98 -107 -172 l-77 -77 12 -213 c7 -117 15 -232 18 -255 5
-34 3 -43 -9 -43 -22 0 -30 13 -106 168 -61 123 -74 142 -94 142 -13 0 -32
-10 -43 -21 -10 -12 -60 -52 -110 -90 l-91 -68 -6 -57 c-3 -31 -9 -59 -12 -62
-10 -10 -25 21 -25 53 0 44 -12 56 -65 66 -27 5 -51 12 -54 15 -11 10 25 24
65 24 45 0 61 10 94 60 13 19 50 67 82 106 32 39 58 78 58 87 0 12 -47 40
-148 91 -147 73 -183 98 -163 110 6 4 121 -1 256 -10 l246 -17 72 70 c85 84
130 113 175 113 26 0 32 -4 32 -20z"/>
<path d="M3500 696 c0 -324 0 -325 -22 -340 -12 -9 -33 -16 -45 -16 -21 0 -23
-4 -23 -61 l0 -61 78 4 c98 5 131 21 160 78 22 43 22 52 22 382 l0 338 -85 0
-85 0 0 -324z"/>
<path d="M1055 961 c-66 -16 -117 -64 -135 -129 -14 -50 -13 -456 1 -507 15
-53 73 -110 129 -125 25 -7 72 -10 105 -8 128 9 183 68 192 208 l6 80 -82 0
-81 0 0 -63 c0 -79 -18 -109 -63 -105 -52 5 -57 27 -57 268 0 247 4 263 63
268 32 3 38 0 47 -23 6 -14 10 -51 10 -81 l0 -54 80 0 80 0 0 51 c0 120 -46
196 -133 218 -50 12 -115 13 -162 2z"/>
<path d="M4250 885 c0 -84 0 -85 -25 -85 -23 0 -25 -3 -25 -49 0 -44 3 -50 23
-53 22 -3 22 -6 27 -188 4 -122 10 -194 19 -211 22 -44 60 -59 150 -59 l81 0
0 60 0 60 -34 0 c-54 0 -57 11 -54 181 l3 154 38 3 37 3 0 50 0 49 -40 0 -40
0 0 85 0 85 -80 0 -80 0 0 -85z"/>
<path d="M30 900 l0 -59 58 -3 57 -3 3 -317 2 -318 80 0 80 0 0 320 0 320 55
0 55 0 0 60 0 60 -195 0 -195 0 0 -60z"/>
<path d="M500 580 l0 -380 170 0 170 0 0 55 0 55 -90 0 -90 0 0 115 0 115 65
0 65 0 0 55 0 54 -62 3 -63 3 -3 98 -3 97 86 0 85 0 0 55 0 55 -165 0 -165 0
0 -380z"/>
<path d="M1450 580 l0 -380 80 0 80 0 0 165 0 165 60 0 60 0 0 -165 0 -165 85
0 85 0 0 380 0 380 -85 0 -85 0 0 -155 0 -155 -60 0 -60 0 0 155 0 155 -80 0
-80 0 0 -380z"/>
<path d="M3907 800 c-43 -8 -81 -33 -111 -74 -19 -25 -21 -44 -24 -194 -3
-159 -2 -169 20 -211 32 -60 82 -86 168 -86 118 0 180 55 180 162 l0 53 -70 0
-70 0 0 -43 c0 -46 -13 -67 -42 -67 -26 0 -38 32 -38 104 l0 66 111 0 111 0
-4 99 c-2 82 -7 105 -24 128 -41 55 -123 80 -207 63z m74 -110 c15 -8 19 -22
19 -60 l0 -50 -40 0 -40 0 0 44 c0 27 6 51 16 60 18 19 20 19 45 6z"/>
<path d="M2273 537 c-111 -111 -129 -139 -97 -151 12 -5 49 26 130 106 112
110 131 139 97 152 -12 5 -47 -24 -130 -107z"/>
<path d="M2297 181 c-97 -98 -108 -121 -70 -135 23 -9 213 180 213 211 0 17
-6 23 -23 23 -16 0 -53 -30 -120 -99z"/>
<path d="M2656 151 c-69 -69 -97 -104 -93 -115 13 -33 46 -13 140 83 69 70 95
103 91 115 -12 32 -41 15 -138 -83z"/>
</g>
</svg>
