<?xml version="1.0" standalone="no"?>
<!DOCTYPE svg PUBLIC "-//W3C//DTD SVG 20010904//EN"
 "http://www.w3.org/TR/2001/REC-SVG-20010904/DTD/svg10.dtd">
<svg version="1.0" xmlns="http://www.w3.org/2000/svg"
 width="457.000000pt" height="102.000000pt" viewBox="0 0 457.000000 102.000000"
 preserveAspectRatio="xMidYMid meet">

<g transform="translate(0.000000,102.000000) scale(0.100000,-0.100000)"
fill="#000000" stroke="none">
<path d="M3128 946 c-46 -17 -75 -35 -154 -98 l-62 -48 -282 16 c-257 14 -284
14 -306 -1 -24 -15 -30 -38 -18 -70 8 -21 70 -51 214 -105 63 -24 116 -44 117
-45 1 -1 -36 -40 -83 -88 -83 -86 -85 -87 -133 -87 -27 0 -63 -3 -80 -6 -26
-6 -31 -11 -31 -36 0 -53 15 -66 79 -74 62 -7 71 -15 71 -71 0 -30 31 -45 88
-41 50 3 52 6 67 98 4 29 13 39 52 60 26 14 73 42 105 62 l57 37 76 -119 c56
-88 84 -122 109 -134 44 -21 69 -20 97 3 19 15 23 28 22 62 -2 54 -21 288 -29
349 l-5 46 84 66 c61 48 90 79 106 112 26 52 22 100 -9 116 -26 14 -108 12
-152 -4z m122 -52 c0 -43 -37 -91 -120 -154 -44 -33 -81 -63 -83 -68 -2 -4 4
-104 14 -222 11 -124 15 -218 10 -223 -19 -19 -52 17 -128 138 -43 69 -86 127
-96 131 -12 4 -37 -7 -70 -28 -29 -19 -87 -54 -130 -78 -43 -23 -80 -48 -82
-54 -2 -6 -6 -33 -10 -59 -9 -64 -35 -62 -48 3 -10 51 -19 60 -62 60 -44 0
-75 11 -75 25 0 8 23 14 69 17 l69 5 102 101 c56 55 100 106 98 112 -2 7 -73
40 -158 74 -165 65 -210 90 -195 105 6 5 122 3 293 -6 l284 -15 76 59 c107 83
143 100 210 102 28 1 32 -2 32 -25z"/>
<path d="M2206 474 c-69 -52 -129 -100 -132 -106 -6 -9 12 -27 27 -28 8 0 269
199 269 205 0 2 -9 9 -19 14 -16 9 -39 -5 -145 -85z"/>
<path d="M2239 162 c-63 -48 -114 -92 -114 -97 0 -6 10 -11 22 -13 15 -2 55
22 127 78 58 45 108 86 112 92 6 9 -12 27 -27 28 -3 0 -57 -40 -120 -88z"/>
<path d="M2642 138 c-106 -79 -129 -108 -91 -116 16 -3 239 163 239 178 0 6
-23 20 -34 20 -1 0 -53 -37 -114 -82z"/>
</g>
</svg>
